<?xml version="1.0" encoding="UTF-8"?>
<svg width="32px" height="32px" viewBox="0 0 32 32" version="1.1" xmlns="http://www.w3.org/2000/svg">
    <title>WFH Monitor</title>
    <style>
        @media (prefers-color-scheme: dark) {
            #background { fill: #1E293B; }
            #icon { fill: #60A5FA; }
        }
        @media (prefers-color-scheme: light) {
            #background { fill: #FFFFFF; }
            #icon { fill: #0078D4; }
        }
    </style>
    <g stroke="none" stroke-width="1" fill="none" fill-rule="evenodd">
        <rect id="background" fill="#FFFFFF" x="0" y="0" width="32" height="32" rx="6"></rect>
        <path id="icon" d="M26,6 C27.1045695,6 28,6.8954305 28,8 L28,20 C28,21.1045695 27.1045695,22 26,22 L16,22 L16,24 L20,24 C20.5522847,24 21,24.4477153 21,25 C21,25.5522847 20.5522847,26 20,26 L12,26 C11.4477153,26 11,25.5522847 11,25 C11,24.4477153 11.4477153,24 12,24 L16,24 L16,22 L6,22 C4.8954305,22 4,21.1045695 4,20 L4,8 C4,6.8954305 4.8954305,6 6,6 L26,6 Z M26,8 L6,8 L6,20 L26,20 L26,8 Z M16,10 C17.6568542,10 19,11.3431458 19,13 C19,14.6568542 17.6568542,16 16,16 C14.3431458,16 13,14.6568542 13,13 C13,11.3431458 14.3431458,10 16,10 Z" fill="#0078D4" fill-rule="nonzero"></path>
    </g>
</svg>